<?xml version="1.0" standalone="no"?>
<!DOCTYPE svg PUBLIC "-//W3C//DTD SVG 20010904//EN"
 "http://www.w3.org/TR/2001/REC-SVG-20010904/DTD/svg10.dtd">
<svg version="1.0" xmlns="http://www.w3.org/2000/svg"
 width="506.000000pt" height="150.000000pt" viewBox="0 0 506.000000 150.000000"
 preserveAspectRatio="xMidYMid meet">

<g transform="translate(0.000000,150.000000) scale(0.100000,-0.100000)"
fill="#000000" stroke="none">
<path d="M1841 999 l-104 -180 19 -35 c16 -29 24 -34 56 -34 41 0 45 5 23 34
-8 11 -15 25 -15 32 0 10 67 132 117 213 l15 24 21 -34 c12 -19 26 -37 32 -41
13 -10 65 -10 65 -1 0 12 -112 203 -119 203 -3 -1 -53 -82 -110 -181z"/>
<path d="M2955 1158 c-148 -52 -171 -234 -40 -304 22 -12 76 -31 121 -44 102
-28 133 -52 141 -106 3 -23 0 -51 -7 -63 -44 -83 -207 -80 -247 3 -15 33 -20
36 -59 36 -43 0 -43 0 -34 -30 24 -84 108 -135 220 -134 138 0 226 91 206 212
-12 74 -64 113 -209 153 -93 26 -137 61 -137 108 0 72 44 111 125 111 57 0
100 -21 120 -60 13 -26 21 -30 55 -30 44 0 46 5 26 54 -34 82 -177 130 -281
94z"/>
<path d="M595 1151 c-9 -15 -225 -611 -225 -621 0 -6 17 -10 38 -10 38 0 38 0
62 68 13 37 28 70 34 74 16 11 258 9 276 -2 8 -5 24 -37 36 -72 21 -63 21 -63
62 -66 23 -2 42 -1 42 2 0 4 -32 93 -71 199 -126 344 -151 412 -154 425 -5 14
-91 17 -100 3z m115 -270 c41 -114 49 -146 38 -152 -16 -11 -199 -12 -215 -1
-8 5 3 46 38 142 67 183 69 188 79 170 4 -8 31 -80 60 -159z"/>
<path d="M1030 839 l0 -320 38 3 37 3 5 145 5 144 134 -147 134 -147 48 0 c27
0 49 2 49 4 0 5 -102 117 -207 227 -40 41 -73 81 -73 88 0 12 106 132 244 279
l40 42 -50 0 -50 0 -129 -144 c-72 -80 -133 -145 -137 -145 -5 -1 -8 64 -8
144 l0 145 -40 0 -40 0 0 -321z"/>
<path d="M2290 1130 l0 -30 90 0 90 0 0 -290 0 -290 40 0 40 0 2 288 3 287 88
3 87 3 0 29 0 30 -220 0 -220 0 0 -30z"/>
<path d="M3390 926 c0 -207 2 -239 19 -278 63 -148 288 -183 403 -61 54 56 58
82 58 338 l0 235 -40 0 -40 0 0 -237 c0 -218 -2 -241 -20 -270 -27 -45 -60
-63 -122 -69 -43 -4 -62 -1 -97 18 -77 40 -81 56 -81 325 l0 233 -40 0 -40 0
0 -234z"/>
<path d="M4020 839 l0 -320 38 3 37 3 5 144 5 145 134 -147 c134 -146 135
-147 178 -147 24 0 43 3 43 8 0 4 -62 74 -137 156 -76 82 -138 153 -138 157 0
5 62 76 138 158 75 83 137 153 137 156 0 3 -20 5 -44 5 -43 0 -47 -3 -123 -87
-43 -48 -104 -115 -135 -148 l-58 -60 0 148 0 147 -40 0 -40 0 0 -321z"/>
<path d="M4580 840 l0 -320 45 0 45 0 0 320 0 320 -45 0 -45 0 0 -320z"/>
<path d="M2025 860 c-20 -40 -20 -40 24 -40 39 0 39 0 100 -105 34 -57 61
-109 61 -115 0 -5 -18 -10 -40 -10 -34 0 -42 -4 -55 -31 -9 -17 -14 -33 -12
-35 2 -3 57 -3 121 -2 l116 3 -38 65 c-22 36 -69 118 -107 183 l-68 117 -43 0
c-38 0 -45 -4 -59 -30z"/>
<path d="M1630 634 c-30 -53 -56 -100 -58 -105 -2 -5 84 -9 210 -9 l213 0 18
31 c21 38 21 48 -2 78 l-19 24 -16 -31 -17 -32 -134 0 c-74 0 -135 3 -135 8 0
4 9 21 19 38 19 31 19 32 -1 63 -11 17 -21 31 -21 31 -1 0 -27 -43 -57 -96z"/>
<path d="M357 403 c-4 -3 -7 -42 -7 -85 0 -70 2 -79 18 -76 10 2 18 14 20 31
2 18 9 27 22 27 10 0 28 8 40 18 45 36 5 92 -64 92 -12 0 -26 -3 -29 -7z m71
-47 c4 -17 -12 -35 -30 -36 -5 0 -8 14 -8 31 0 24 4 30 17 27 10 -2 19 -12 21
-22z"/>
<path d="M477 404 c-10 -11 2 -24 23 -24 17 0 19 -9 22 -67 2 -55 6 -68 21
-71 15 -3 17 5 17 67 0 62 2 70 20 73 12 2 22 8 23 13 2 11 -115 20 -126 9z"/>
<path d="M688 353 c-1 -32 -2 -69 -2 -83 -1 -16 5 -26 17 -28 16 -3 18 4 15
79 -2 55 -7 84 -15 87 -9 2 -13 -13 -15 -55z"/>
<path d="M767 404 c-4 -4 -7 -43 -7 -86 0 -63 3 -78 15 -78 12 0 15 14 15 63
l1 62 32 -60 c23 -43 39 -61 55 -63 22 -3 23 -2 20 79 -2 53 -7 84 -15 86 -8
3 -13 -14 -15 -54 l-3 -58 -30 55 c-28 51 -52 70 -68 54z"/>
<path d="M917 404 c-10 -11 2 -24 23 -24 17 0 19 -9 22 -67 2 -55 6 -68 21
-71 15 -3 17 5 17 67 0 62 2 70 20 73 12 2 22 8 23 13 2 11 -115 20 -126 9z"/>
<path d="M1065 336 c-3 -41 -4 -80 0 -86 8 -13 92 -13 100 -1 3 5 -9 11 -27
13 -28 2 -34 8 -36 31 -3 24 0 27 28 27 18 0 29 4 25 10 -3 6 -17 10 -31 10
-17 0 -24 6 -24 19 0 15 8 21 33 23 48 5 39 23 -14 26 l-47 3 -7 -75z"/>
<path d="M1207 403 c-4 -3 -7 -42 -7 -85 0 -61 3 -78 14 -78 9 0 16 12 18 32
4 44 25 47 43 4 9 -20 22 -36 30 -36 19 0 19 13 -1 51 -14 28 -14 32 1 48 20
23 10 50 -22 62 -28 11 -67 12 -76 2z m73 -43 c0 -15 -7 -20 -25 -20 -18 0
-25 5 -25 20 0 15 7 20 25 20 18 0 25 -5 25 -20z"/>
<path d="M1357 403 c-4 -3 -7 -42 -7 -85 0 -61 3 -78 15 -78 10 0 15 16 17 63
l3 62 33 -62 c23 -45 38 -63 52 -63 18 0 20 7 20 86 0 64 -3 85 -12 82 -8 -3
-15 -28 -18 -59 l-5 -54 -20 44 c-28 63 -57 86 -78 64z"/>
<path d="M1561 388 c-4 -13 -18 -49 -30 -81 -25 -69 -25 -67 -5 -67 9 0 18 9
21 20 4 15 14 20 38 20 25 0 35 -5 40 -20 6 -19 25 -26 37 -14 4 3 1 20 -6 37
-7 18 -21 53 -30 80 -20 52 -50 64 -65 25z m43 -65 c6 -18 3 -23 -12 -23 -27
0 -31 8 -19 40 12 31 18 27 31 -17z"/>
<path d="M1670 395 c0 -9 9 -15 25 -15 24 0 25 -2 25 -70 0 -56 3 -70 15 -70
12 0 15 14 15 70 0 69 1 70 26 70 16 0 24 5 22 13 -3 7 -28 13 -66 15 -51 2
-62 0 -62 -13z"/>
<path d="M1827 403 c-4 -3 -7 -42 -7 -85 0 -63 3 -78 15 -78 12 0 15 16 15 85
0 78 -5 96 -23 78z"/>
<path d="M1910 390 c-14 -14 -20 -33 -20 -68 0 -59 20 -82 73 -82 52 0 77 28
77 85 0 57 -25 85 -75 85 -22 0 -43 -8 -55 -20z m88 -22 c18 -18 14 -66 -8
-88 -44 -44 -92 21 -60 81 12 21 50 25 68 7z"/>
<path d="M2077 403 c-4 -3 -7 -42 -7 -85 0 -61 3 -78 15 -78 10 0 15 16 17 63
l3 62 33 -62 c23 -45 38 -63 52 -63 18 0 20 7 20 86 0 64 -3 85 -12 82 -8 -3
-15 -28 -18 -59 l-5 -54 -20 44 c-28 63 -57 86 -78 64z"/>
<path d="M2290 390 c-13 -25 -50 -129 -50 -142 0 -17 29 -7 35 12 4 14 15 20
35 20 19 0 33 -7 40 -20 12 -22 40 -27 40 -7 -1 6 -13 43 -28 82 -29 74 -52
92 -72 55z m39 -72 c1 -12 -6 -18 -19 -18 -23 0 -25 9 -8 45 11 24 13 25 19 8
4 -10 8 -26 8 -35z"/>
<path d="M2415 397 c-4 -8 -5 -45 -3 -83 l3 -69 43 0 c47 0 63 18 20 23 -26 3
-27 6 -30 69 -2 42 -8 68 -15 71 -7 2 -15 -3 -18 -11z"/>
<path d="M2621 388 c-4 -13 -18 -49 -30 -81 -25 -69 -25 -67 -6 -67 8 0 19 9
25 20 7 13 21 20 40 20 20 0 31 -6 35 -20 6 -19 25 -26 37 -14 6 6 -39 131
-55 152 -15 19 -37 14 -46 -10z m42 -80 c-2 -5 -12 -8 -23 -8 -16 0 -17 4 -7
37 l11 36 12 -29 c7 -16 10 -32 7 -36z"/>
<path d="M2755 397 c-4 -8 -5 -45 -3 -83 2 -55 6 -69 20 -72 13 -2 17 5 20 35
l3 38 23 -37 c23 -36 52 -51 52 -26 0 6 -12 26 -26 45 l-25 33 25 31 c28 32
33 49 16 49 -13 0 -59 -49 -61 -64 -1 -6 -4 4 -8 23 -6 36 -27 52 -36 28z"/>
<path d="M2943 398 c-5 -7 -19 -38 -30 -68 -12 -30 -24 -63 -28 -72 -5 -14 -2
-18 13 -18 11 0 22 8 25 20 4 15 14 20 36 20 20 0 34 -7 41 -20 6 -11 17 -20
25 -20 19 0 20 -4 -11 82 -31 85 -49 104 -71 76z m31 -60 c9 -35 8 -38 -14
-38 -11 0 -20 3 -20 8 0 19 13 52 20 52 4 0 10 -10 14 -22z"/>
<path d="M3047 403 c-14 -13 -6 -23 18 -23 24 0 25 -2 25 -71 0 -61 2 -70 17
-67 14 2 16 14 14 71 -2 66 -2 67 23 67 16 0 26 6 26 15 0 12 -13 15 -58 15
-32 0 -62 -3 -65 -7z"/>
<path d="M3213 403 c-6 -5 -14 -20 -18 -35 -6 -24 -2 -30 29 -49 54 -32 48
-54 -13 -49 -15 1 -22 -3 -19 -12 7 -20 72 -22 92 -2 25 24 16 56 -21 79 -40
25 -39 51 1 47 19 -2 27 1 24 10 -5 15 -57 22 -75 11z"/>
<path d="M3330 338 c0 -85 8 -98 61 -98 54 0 69 20 69 91 0 32 1 62 2 67 1 4
-6 8 -15 10 -13 3 -17 -8 -19 -65 l-3 -68 -30 0 c-30 0 -30 1 -35 64 -3 39
-10 66 -17 69 -10 3 -13 -16 -13 -70z"/>
<path d="M3507 403 c-4 -3 -7 -42 -7 -85 0 -63 3 -78 15 -78 10 0 15 11 15 35
0 44 9 44 38 0 12 -19 29 -35 37 -35 20 0 19 4 -11 51 l-25 41 25 33 c35 46
13 61 -24 17 -33 -40 -40 -40 -40 -2 0 29 -9 38 -23 23z"/>
<path d="M3650 336 c0 -42 0 -79 -1 -83 0 -5 7 -9 16 -11 14 -3 15 8 13 79 -2
55 -7 84 -15 87 -10 3 -13 -16 -13 -72z"/>
<path d="M3787 403 c-4 -3 -7 -42 -7 -85 l0 -78 33 0 c17 0 42 3 55 6 26 7 40
48 23 68 -6 7 -8 27 -5 44 6 28 3 33 -20 42 -31 11 -70 13 -79 3z m68 -43 c0
-8 -10 -16 -22 -18 -18 -3 -23 2 -23 18 0 16 5 21 23 18 12 -2 22 -10 22 -18z
m1 -55 c19 -15 19 -15 0 -30 -11 -8 -24 -15 -28 -15 -5 0 -11 7 -14 15 -7 17
2 45 14 45 4 0 17 -7 28 -15z"/>
<path d="M3930 338 c0 -44 5 -79 12 -86 17 -17 84 -15 102 4 22 21 23 154 1
154 -11 0 -15 -16 -17 -67 l-3 -68 -30 0 c-30 0 -30 1 -35 64 -3 39 -10 66
-17 69 -10 3 -13 -16 -13 -70z"/>
<path d="M4112 398 c-27 -27 -6 -75 41 -91 9 -4 17 -13 17 -22 0 -11 -11 -15
-41 -15 -36 0 -40 -2 -29 -15 20 -24 77 -19 95 9 20 30 12 50 -32 76 -29 17
-33 23 -23 35 8 9 21 13 36 9 13 -4 24 -2 24 4 0 22 -68 30 -88 10z"/>
<path d="M4237 404 c-4 -4 -7 -43 -7 -86 0 -72 2 -78 20 -78 20 0 21 5 18 82
-3 75 -12 100 -31 82z"/>
<path d="M4309 355 c-1 -30 -2 -67 -3 -82 -1 -19 5 -29 16 -31 14 -3 17 6 20
54 l3 58 29 -58 c23 -45 33 -56 50 -54 19 3 21 9 21 83 0 64 -3 80 -15 80 -12
0 -15 -12 -14 -52 1 -29 0 -53 -2 -53 -2 0 -18 25 -35 55 -20 37 -37 55 -50
55 -16 0 -19 -8 -20 -55z"/>
<path d="M4487 404 c-4 -4 -7 -43 -7 -86 l0 -78 50 0 c55 0 69 17 18 22 -28 2
-34 8 -36 31 -3 24 0 27 27 27 17 0 31 5 31 10 0 6 -13 10 -30 10 -23 0 -30 5
-30 19 0 15 8 21 33 23 17 2 32 8 32 13 0 12 -77 19 -88 9z"/>
<path d="M4622 398 c-6 -6 -12 -24 -12 -39 0 -21 9 -32 37 -49 34 -20 36 -23
20 -35 -9 -7 -29 -10 -43 -7 -20 4 -25 1 -22 -9 6 -18 75 -24 94 -8 8 6 14 24
14 40 0 24 -7 33 -35 46 -43 21 -44 50 -1 45 19 -2 27 1 24 10 -6 17 -60 22
-76 6z"/>
<path d="M4746 395 c-26 -26 -19 -54 19 -76 53 -32 47 -54 -14 -49 -15 1 -22
-3 -19 -12 7 -20 72 -22 92 -2 25 24 16 56 -21 79 -40 25 -39 51 1 47 19 -2
27 1 24 10 -7 20 -63 22 -82 3z"/>
</g>
</svg>
